<svg xmlns="http://www.w3.org/2000/svg" width="248" height="40" fill="none"><path fill="#E31E52" fill-rule="evenodd" d="M17.03 21.637 12.482 2.921A3.835 3.835 0 0 0 7.575.187l-4.919 1.6A3.835 3.835 0 0 0 .282 6.88l7.332 17.814a3.837 3.837 0 0 0 4.734 2.2l2.144-.697a3.832 3.832 0 0 0 2.537-4.56Zm.682 18.108a5.256 5.256 0 1 1-3.233-10.002 5.256 5.256 0 0 1 3.233 10.002Zm10.92-4.805c6.746-2.192 12.19-9.969 9.482-18.308C35.403 8.3 26.427 5.203 19.682 7.395a3.149 3.149 0 0 0-2.086 3.748l.68 2.803a3.159 3.159 0 0 0 4.037 2.246l.277-.088a5.3 5.3 0 1 1 3.276 10.079l-.277.088a3.151 3.151 0 0 0-1.936 4.19l1.087 2.672a3.15 3.15 0 0 0 3.893 1.806Z" clip-rule="evenodd"/><path fill="#303330" fill-rule="evenodd" d="M59.063 13.517c3.586-1.92 8.004-1.569 10.998 1.422 2.871 2.878 2.93 7.014 2.93 8.64 0 4.607-2.128 8.489-6.178 9.684-5.393 1.651-13.651.194-13.651.194a.75.75 0 0 1-.667-.745V7.26a.606.606 0 0 1 .606-.606h5.057a.606.606 0 0 1 .606.606v6.087a.2.2 0 0 0 .3.171Zm-.053 14.589c1.555.437 4.66.603 6.436-1.243v.006c1.217-1.184 2.642-5.013-.219-7.874-1.206-1.234-3.181-1.9-5.926-.755a.944.944 0 0 0-.537.863v8.654a.354.354 0 0 0 .246.349Zm87.629-20.83v26.327a.408.408 0 0 0 .404.404h5.498a.406.406 0 0 0 .406-.404V7.276a.608.608 0 0 0-.606-.606h-5.101a.605.605 0 0 0-.601.606ZM97.519 29.35a1.85 1.85 0 0 1-.851-.352c-.277-.243-.424-.672-.454-1.37V13.064a.53.53 0 0 0-.528-.528H90.5a.528.528 0 0 0-.529.528v13.513a.23.23 0 0 1 0 .06c-.498 1.76-2.562 2.291-4.18 2.018-2.3-.388-3.26-2.319-3.176-4.543 0-.078.03-10.295.036-11.048a.528.528 0 0 0-.529-.528H76.95a.526.526 0 0 0-.526.523c0 2.213-.017 12.854-.017 12.854 0 1.66.52 7.038 5.927 8.023 2.542.462 5.566-.354 8.009-2.091a.208.208 0 0 1 .296.05 4.604 4.604 0 0 0 2.385 1.7c1.427.47 3.365.28 3.95.224l.015-.002a.407.407 0 0 0 .36-.36l.495-3.64a.401.401 0 0 0-.324-.465Zm103.726-7.949c-.185-2.37-.919-4.844-2.424-6.64l-.04-.048-.039-.047c-.619-.746-2.275-2.74-7.374-2.724-2.089 0-4.18.141-6.261.34-1.19.108-2.379.23-3.566.354-.769.081-.767.547-.764 1.175v25.244a.935.935 0 0 0 .191.692c.188.135.42.195.65.166h4.554a.667.667 0 0 0 .83-.797c.011-1.46.008-2.9.004-4.344-.002-.724-.004-1.45-.004-2.18a.203.203 0 0 1 .332-.157c1.815 1.58 4.529 2.017 6.859 1.342 2.468-.709 4.515-2.601 5.691-4.89 1.176-2.287 1.557-4.918 1.361-7.486Zm-6.363 3.027c-.521 2.033-1.453 3.597-4.253 3.765-1.4.08-3.624-.71-3.624-2.014v-7.793c0-.3.033-.518.324-.648.6-.277 2.213-.5 3.45-.462 5.323.152 4.374 6.148 4.116 7.152h-.013Zm-81.075-1.915c-.443.628-.443.841-.028 1.428l7.338 9.437a.39.39 0 0 1 .027.42.39.39 0 0 1-.359.22h-6.043a.404.404 0 0 1-.337-.183l-6.319-8.195a.311.311 0 0 0-.49.003.307.307 0 0 0-.064.174v7.796a.404.404 0 0 1-.406.404h-5.456a.408.408 0 0 1-.404-.404V7.276a.61.61 0 0 1 .374-.566.611.611 0 0 1 .235-.046h5.049a.607.607 0 0 1 .606.606v13.833a.276.276 0 0 0 .492.164c1.217-1.66 5.414-7.542 6.087-8.502a.4.4 0 0 1 .332-.175h5.901a.386.386 0 0 1 .362.227.397.397 0 0 1-.041.426l-6.856 9.271Zm126.642 1.428c-.413-.587-.413-.8.03-1.428l6.867-9.27a.402.402 0 0 0 .041-.426.405.405 0 0 0-.362-.228h-5.912a.398.398 0 0 0-.332.175c-.673.96-4.87 6.842-6.087 8.502a.275.275 0 0 1-.441-.005.275.275 0 0 1-.054-.159V7.27a.614.614 0 0 0-.178-.428.606.606 0 0 0-.428-.178h-5.06a.603.603 0 0 0-.606.606v26.339a.404.404 0 0 0 .406.404h5.456a.406.406 0 0 0 .404-.404v-7.791a.313.313 0 0 1 .554-.177l6.319 8.195a.408.408 0 0 0 .337.182h6.045a.395.395 0 0 0 .36-.218.4.4 0 0 0-.03-.42l-7.329-9.438Zm-97.648 5.405.064.015a.411.411 0 0 1 .313.462l-.501 3.64a.4.4 0 0 1-.354.358l-.096.01c-.701.074-2.864.303-4.419-.436a4.48 4.48 0 0 1-1.84-1.503.19.19 0 0 0-.126-.087.196.196 0 0 0-.15.032c-.792.57-4.242 2.789-8.135 2.07a6.6 6.6 0 0 1-3.082-1.42c-2.902-2.49-3.095-7.832-.246-10.494a8.529 8.529 0 0 1 2.393-1.41c3.683-1.597 8.69-1.36 8.69-1.36.056-.957-.121-2.18-2.506-2.395-1.918-.212-5.462.412-6.512.596l-.214.037a.601.601 0 0 1-.705-.5l-1.146-3.406a.61.61 0 0 1 .498-.7c1.09-.172 4.131-.606 5.448-.747 6.738-.8 8.801 1.42 9.557 2.235h.001l.125.133c1.641 1.837 1.751 4.427 1.735 6.76l-.044 6.086c0 1.739.594 1.874 1.252 2.024Zm-7.832-1.504c.208-.213.326-.499.327-.797V23.51c0-.371-1.004-.262-1.252-.235l-.054.006c-1.693.23-2.894.545-3.66.943-.974.515-1.464 1.292-1.464 2.324a2.273 2.273 0 0 0 .83 1.848c2.047 1.461 4.609.152 5.273-.553Zm42.045 1.519-.065-.015c-.655-.15-1.249-.286-1.249-2.024l.045-6.087c.016-2.332-.097-4.922-1.735-6.759a6.583 6.583 0 0 1-.128-.136c-.76-.815-2.826-3.031-9.555-2.232-1.317.141-4.358.575-5.448.747a.61.61 0 0 0-.495.7l1.145 3.406a.604.604 0 0 0 .706.5l.046-.008c.752-.137 4.636-.847 6.671-.63 2.385.215 2.562 1.438 2.509 2.395 0 0-5.01-.238-8.692 1.359a8.507 8.507 0 0 0-2.382 1.41c-2.847 2.662-2.657 8.005.246 10.495a6.597 6.597 0 0 0 3.082 1.419c3.895.72 7.343-1.5 8.134-2.07a.19.19 0 0 1 .15-.032.191.191 0 0 1 .126.087 4.48 4.48 0 0 0 1.84 1.503c1.555.74 3.718.51 4.419.436l.097-.01a.398.398 0 0 0 .354-.357l.514-3.635a.408.408 0 0 0-.335-.462Zm-7.555-2.316a1.152 1.152 0 0 1-.327.797c-.667.705-3.228 2.014-5.273.553a2.273 2.273 0 0 1-.83-1.848c0-1.032.49-1.81 1.466-2.324.767-.398 1.965-.714 3.658-.943a.993.993 0 0 0 .053-.005c.249-.028 1.255-.137 1.255.234l-.002 3.536Zm54.602 2.301.064.015a.414.414 0 0 1 .321.456l-.501 3.641a.4.4 0 0 1-.354.357l-.098.01c-.705.075-2.866.303-4.417-.436a4.464 4.464 0 0 1-1.84-1.502.19.19 0 0 0-.126-.086.195.195 0 0 0-.15.03c-.792.57-4.242 2.79-8.134 2.07a6.58 6.58 0 0 1-3.082-1.42c-2.903-2.49-3.096-7.832-.247-10.493a8.535 8.535 0 0 1 2.382-1.411c3.683-1.597 8.691-1.359 8.691-1.359.052-.957-.122-2.18-2.507-2.396-2.046-.217-5.955.5-6.681.633l-.037.006a.604.604 0 0 1-.708-.5l-1.145-3.406a.61.61 0 0 1 .498-.7c1.087-.172 4.13-.606 5.445-.747 6.738-.8 8.801 1.42 9.557 2.235.047.05.088.095.126.133 1.638 1.837 1.751 4.427 1.735 6.76l-.045 6.086c0 1.739.595 1.874 1.253 2.024Zm-7.821-1.504c.208-.213.325-.499.327-.797V23.51c0-.371-1.004-.262-1.253-.235a.993.993 0 0 1-.053.006c-1.696.23-2.894.545-3.66.943-.977.515-1.464 1.292-1.464 2.324a2.273 2.273 0 0 0 .83 1.848c2.047 1.461 4.607.152 5.273-.553Z" clip-rule="evenodd"/></svg>